<svg xmlns="http://www.w3.org/2000/svg" viewBox="0 0 332.71 200.96"><g id="Capa_2" data-name="Capa 2"><g id="Capa_1-2" data-name="Capa 1"><path d="M85.38,129.08c2.82,7,11,8.69,9.68,16.46-1.18,7.08-2.59,13.82-8.94,18.27-4.39-4.58-4.49-6.18-.64-10.31,2.8-3,1.65-10-2.6-14.29-8.17-8.33-16.45-16.55-24.69-24.8-5.31-5.31-4.62-8.17,2.52-10.54,3.74-1.24,7.53-2.37,11.17-3.87a78.36,78.36,0,0,0,7.59-4.07c-3.89-5-7.6-9.26-10.65-13.92-4.45-6.8-4.24-13.82-.19-20.94,3.26-5.73,2.2-6.45-4.36-7.27-13.38-1.67-22.48,6.1-32.55,12.7-6.76,4.44-14.71,7-22,10.61C6.44,78.68,5.13,77,4,74.42A76,76,0,0,1,.36,65.7a12.76,12.76,0,0,1,0-6.08c.85-3.81,1.11-8.51,3.53-11,2.27-2.34,7-2.74,10.66-3.1,2.11-.21,4.39,1.4,6.62,2.13,1.86.61,3.75,1.64,5.62,1.61,8.41-.15,16.83-.56,25.24-1,6-.29,12.2,0,18-1.31a84.22,84.22,0,0,0,17.87-6.87c13.18-6.48,26.56-4.47,40-1.49,17.49,3.87,35.06,3.09,52.69,1.65,13.83-1.14,27.66-2.32,41.52-3.11,4.88-.28,8.39-.73,11-6.09,3-6.35,9.78-9,16.43-10.94,1.74-.51,3.51-.92,5.22-1.37C255,13,259.5,8,265.43,8.25a22.49,22.49,0,0,0,17.11-5.87C286.92-1.44,288.65-.5,292.65,4c6.12,6.91,12.8,13.32,18.94,20.22,5,5.58,9.44,11.56,14.15,17.35a36.86,36.86,0,0,0,3.48,4.16c5.62,5.1,4.27,11.41-2.71,14.28-4.43,1.82-6.84,1.8-11.3-1.78-7.61-6.12-17.09-10.1-26.2-14-2.33-1-6.88.84-9.28,2.77-9.57,7.72-14.89,18.82-21.78,28.69-4.3,6.16-9.64,11.59-14.39,17.44a22.59,22.59,0,0,0-2.6,4.7c-5.13,10.9-11,20.87-24.76,22.3-.86.09-2.14,2.33-2.13,3.55.07,6.12.7,12.24.75,18.37a98.54,98.54,0,0,1-.86,13.84c-.59,4.48-4.72,5.85-8.07,5.86-10.51,0-21.19,1.62-31.43-2.68-1.62-.68-4.68,0-6.08,1.2-7.76,6.66-15.11,13.79-22.82,20.52-4.47,3.91-8.57,8-11.35,13.33-1.28,2.45-3.38,4.48-5.2,6.84-5.18-6.49-3.1-15.06,2.67-17.24,1.59-.6,2.78-2.39,4-3.73,3.31-3.52,6.33-7.35,9.89-10.59,5.36-4.86,11.25-9.13,16.61-14,4.68-4.24,4.43-6.91-.16-11-1-.89-1.83-2-2.73-2.94l.69-1.77,13.63,2.47c1.9-2.76,4.28-6.48,6.95-10a82,82,0,0,1,6.82-7.84c4.77-4.86,4.07-8.56-2.27-10.91-13.08-4.84-26.22-9.55-39.25-14.54-5.2-2-10.18-4.57-15.43-7-4.53,11-13.4,18-22.3,24.85-6.71,5.19-6.86,8.57.13,13,6.52,4.09,12.94,8.35,19.57,12.26,4.92,2.91,6.61,7.22,6.08,12.52-.41,4.07-1.32,8.09-2.15,12.95-2.33-1.77-4.49-3-6.05-4.74-.9-1-1.56-3.13-1.11-4.3,2.18-5.76,1.61-8.43-3.67-11.57-8.94-5.31-17.93-10.55-27-15.54C91.76,130.1,89,130,85.38,129.08ZM177,151.85c3.1,1.49,4.85,3,6.67,3.1,5.62.33,11.27.22,16.9.08,3.92-.09,6-2.79,4.93-6.49s-2.66-7-3.81-10.55c-1.21-3.77-3.53-4.25-6.27-2C189.61,140.77,184,145.81,177,151.85Zm-83.74-40C87.28,110,82,111.2,77,113.1c-1,.37-2,3.72-1.34,4.71,1.6,2.56,4.09,4.57,6.27,6.75a4.29,4.29,0,0,0,1.1-.88C86.27,120,89.48,116.24,93.28,111.84Z"/></g></g></svg>